<?xml version="1.0" encoding="UTF-8"?>
<svg id="Ebene_1" data-name="Ebene 1" xmlns="http://www.w3.org/2000/svg" viewBox="0 0 497.76 305.39">
  <defs>
    <style>
      .cls-1 {
        fill: none;
        stroke-width: 5px;
      }

      .cls-1, .cls-2 {
        stroke: #fff;
        stroke-miterlimit: 10;
      }

      .cls-3 {
        fill: #1e1e1c;
      }

      .cls-2 {
        fill: #e10714;
        stroke-width: 4px;
      }
    </style>
  </defs>
  <g>
    <path class="cls-2" d="m412.93,281l-8.37-4.82c-63.03,56.86-147.59,18.45-101.21-58.32l109.58,63.15Z"/>
    <ellipse class="cls-3" cx="325.07" cy="246.9" rx="4.49" ry="15.83"/>
  </g>
  <g>
    <path class="cls-2" d="m90.67,275.85l8.62-4.35c59.78,60.27,146.33,26.63,104.29-52.61l-112.92,56.96Z"/>
    <ellipse class="cls-3" cx="175.5" cy="249.43" rx="4.49" ry="15.83"/>
  </g>
  <path class="cls-1" d="m460.78,214.8l-21.89-43.77L493.14,14.02l-120.24,72.76,2.35-15-13.84,12.45-.63-25.41-40,22.39-1.01-50.94c-45.66,53.21-52.07,46.04-55.6-9.81-39.5,59.62-41.51,61.76-50.56,15.85-5.41,19.24-20.01,31.95-32.07,44.53l-15.47-38.87c-3.22,21.51-8.92,41.12-18.49,57.73L3.06,4.99c6.12,56.24,35.85,125.28,62.64,178.86l-23.02,47.55"/>
</svg>